<svg width="19" height="24" viewBox="0 0 19 24" fill="none" xmlns="http://www.w3.org/2000/svg">
<path d="M18.5894 9.54786C18.9249 7.05897 17.0338 5.75962 14.4412 4.88118L15.2464 1.51386L13.1968 1.01974L12.4159 4.31386C11.873 4.18576 11.324 4.05765 10.7811 3.94785L11.5619 0.653725L9.48784 0.159607L8.68261 3.52693C8.2434 3.42323 7.79808 3.34393 7.35887 3.24022L4.53447 2.5631L4.01595 4.74088C4.01595 4.74088 5.5471 5.07639 5.4922 5.10689C6.32183 5.3143 6.48044 5.85722 6.44993 6.27204L5.541 10.1091C5.5959 10.1335 5.66911 10.1335 5.74841 10.1884C5.66911 10.164 5.62031 10.164 5.541 10.1396L4.29656 15.5078C4.19285 15.764 3.93054 16.13 3.36322 16.0019C3.38763 16.0263 1.85647 15.6359 1.85647 15.6359L0.886536 17.9967L3.55843 18.6189C4.05255 18.747 4.54667 18.8507 5.01028 18.9849L4.20505 22.3827L6.25473 22.8769L7.05996 19.5095C7.63338 19.662 8.1763 19.7962 8.69482 19.9243L7.88959 23.2673L9.93926 23.7614L10.7445 20.3636C14.246 20.9858 16.863 20.6991 17.9244 17.5087C18.7785 14.9649 17.8451 13.513 15.9785 12.5553C17.3449 12.2442 18.3332 11.3596 18.5894 9.54786ZM13.9776 16.1544C13.3798 18.6982 9.07913 17.3745 7.70048 17.0389L8.76192 12.5248C10.165 12.8664 14.5998 13.4886 13.9776 16.1544ZM14.5449 9.54786C14.002 11.8537 10.4212 10.7435 9.25603 10.4568L10.2443 6.36354C11.385 6.64415 15.1183 7.13827 14.5449 9.54786Z" fill="#F9A545"/>
</svg>
