<svg width="15" height="24" viewBox="0 0 15 24" fill="none" xmlns="http://www.w3.org/2000/svg">
<path d="M7.72281 16.3111C7.65374 16.3346 7.61437 16.2745 7.56741 16.2468C5.26508 14.888 2.96529 13.5283 0.668028 12.1676C0.645783 12.1564 0.622688 12.1469 0.598958 12.1393V12.1089L0.639711 12.0854C0.697573 12.0702 0.754534 12.0518 0.810316 12.0301L6.23574 9.56159C6.71923 9.34126 7.20272 9.12438 7.68621 8.90612H7.72074C7.72074 8.97519 7.72074 9.03666 7.72074 9.10228C7.72259 11.5054 7.72327 13.9084 7.72281 16.3111Z" fill="#627CFD"/>
<path d="M7.72624 8.9078H7.69171C7.69171 8.83873 7.69862 8.76966 7.69862 8.69714C7.69862 5.99789 7.69862 3.29842 7.69862 0.598716C7.69068 0.529378 7.69536 0.459176 7.71243 0.391507H7.72693C8.01081 0.81076 8.25808 1.2528 8.51916 1.68587C10.5876 5.11679 12.6548 8.54726 14.7209 11.9773C14.741 12.0111 14.7569 12.0463 14.7748 12.0836C14.7163 12.0711 14.6588 12.0543 14.6028 12.0332C14.2236 11.8619 13.8431 11.6879 13.4673 11.5131C12.8788 11.2437 12.2901 10.9748 11.7012 10.7064L8.86382 9.42099C8.48601 9.24693 8.10613 9.07771 7.72624 8.9078Z" fill="#627CFD"/>
<path d="M7.7147 0.387937C7.69763 0.455607 7.69295 0.525809 7.70089 0.595146C7.70089 3.29439 7.70089 5.99386 7.70089 8.69356C7.70089 8.76263 7.69675 8.83171 7.69398 8.90423C7.2105 9.12249 6.72701 9.33937 6.24352 9.5597L0.818091 12.0283C0.76231 12.0499 0.705349 12.0683 0.647487 12.0835C0.804275 11.7575 1.00803 11.4619 1.19383 11.1497C3.3465 7.57142 5.50079 3.99384 7.65668 0.416947C7.67093 0.397132 7.68639 0.378217 7.70296 0.36031L7.7147 0.387937Z" fill="#627CFD"/>
<path d="M7.72624 8.9078C8.10613 9.07771 8.48613 9.24699 8.86532 9.41828L11.7027 10.7037C12.2921 10.9717 12.8808 11.2406 13.4688 11.5104C13.8473 11.6838 14.2286 11.8592 14.6043 12.0305C14.6603 12.0516 14.7178 12.0684 14.7763 12.0809C14.8454 12.1673 14.7432 12.1707 14.7121 12.1894C14.1229 12.5416 13.531 12.889 12.9404 13.2385C11.2455 14.2414 9.55095 15.2441 7.8569 16.2465C7.81408 16.2714 7.76771 16.2897 7.72281 16.3111C7.72281 13.9088 7.7229 11.5067 7.7229 9.10402C7.72359 9.0384 7.72555 8.97341 7.72624 8.9078Z" fill="#627CFD"/>
<path d="M7.69854 17.6757L12.1363 15.06C12.9835 14.5599 13.8303 14.0594 14.6767 13.5584L14.7533 13.5163C14.7609 13.5854 14.7133 13.622 14.6843 13.662C12.7503 16.3884 10.8164 19.1139 8.8824 21.8385C8.51633 22.3551 8.15095 22.8746 7.78143 23.387C7.76209 23.414 7.73239 23.5404 7.67299 23.4064C7.71996 23.3663 7.69924 23.3125 7.69924 23.2682C7.6997 21.4034 7.69946 19.5392 7.69854 17.6757Z" fill="#627CFD"/>
<path d="M7.69854 17.6757C7.69854 19.5392 7.69816 21.4026 7.69816 23.2651C7.69816 23.3128 7.71888 23.3667 7.67192 23.4033C7.57315 23.3439 7.53032 23.2375 7.46471 23.1498C5.22224 19.991 2.98093 16.8318 0.740768 13.6721C0.71245 13.632 0.686202 13.5892 0.657192 13.545C0.715211 13.5111 0.746294 13.5574 0.780138 13.5774C3.04793 14.9165 5.31526 16.2566 7.58213 17.598C7.62426 17.6242 7.66056 17.6508 7.69854 17.6757Z" fill="#627CFD"/>
<path d="M7.7147 0.387937L7.69864 0.362343C7.72903 0.343004 7.72489 0.371322 7.72972 0.385827L7.7147 0.387937Z" fill="#627CFD"/>
</svg>
