<svg width="18" height="18" viewBox="0 0 18 18" fill="none" xmlns="http://www.w3.org/2000/svg">
<circle cx="9" cy="9" r="8.25" fill="#1565C0" stroke="white" stroke-width="0.5"/>
<path d="M9 2L9.33677 3.03647H10.4266L9.54491 3.67705L9.88168 4.71353L9 4.07295L8.11832 4.71353L8.45509 3.67705L7.57342 3.03647H8.66323L9 2Z" fill="#FDD835"/>
<path d="M9 16L8.66323 14.9635L7.57342 14.9635L8.45509 14.3229L8.11832 13.2865L9 13.9271L9.88168 13.2865L9.54491 14.3229L10.4266 14.9635L9.33677 14.9635L9 16Z" fill="#FDD835"/>
<path d="M16 9L14.9635 9.33677L14.9635 10.4266L14.3229 9.54491L13.2865 9.88168L13.9271 9L13.2865 8.11832L14.3229 8.45509L14.9635 7.57342L14.9635 8.66323L16 9Z" fill="#FDD835"/>
<path d="M2 9L3.03647 8.66323L3.03647 7.57342L3.67705 8.45509L4.71353 8.11832L4.07295 9L4.71353 9.88168L3.67705 9.54491L3.03647 10.4266L3.03647 9.33677L2 9Z" fill="#FDD835"/>
<path d="M6.18197 3.93935L5.6872 4.91038L6.45782 5.681L5.38142 5.51051L4.88666 6.48155L4.71617 5.40515L3.63977 5.23466L4.61081 4.7399L4.44032 3.6635L5.21094 4.43412L6.18197 3.93935Z" fill="#FDD835"/>
<path d="M14.182 3.93935L13.6872 4.91038L14.4578 5.681L13.3814 5.51051L12.8867 6.48155L12.7162 5.40515L11.6398 5.23466L12.6108 4.7399L12.4403 3.6635L13.2109 4.43412L14.182 3.93935Z" fill="#FDD835"/>
<path d="M6.18197 12.0607L5.6872 13.0317L6.45782 13.8023L5.38142 13.6318L4.88666 14.6029L4.71617 13.5265L3.63977 13.356L4.61081 12.8612L4.44032 11.7848L5.21094 12.5554L6.18197 12.0607Z" fill="#FDD835"/>
<path d="M14.182 12.0607L13.6872 13.0317L14.4578 13.8023L13.3814 13.6318L12.8867 14.6029L12.7162 13.5265L11.6398 13.356L12.6108 12.8612L12.4403 11.7848L13.2109 12.5554L14.182 12.0607Z" fill="#FDD835"/>
</svg>
