<svg width="24" height="24" viewBox="0 0 24 24" fill="none" xmlns="http://www.w3.org/2000/svg">
<path fill-rule="evenodd" clip-rule="evenodd" d="M14.2705 2.66963C13.5637 2.39815 12.7976 2.25 12 2.25C8.77134 2.25 6.05898 4.67767 5.70244 7.88659L5.45063 10.1528L5.44448 10.2078C5.32762 11.2261 4.99615 12.2081 4.47195 13.0889L4.44354 13.1364L3.86551 14.0998L3.84608 14.1321C3.6004 14.5416 3.38734 14.8966 3.24707 15.1945C3.10496 15.4962 2.97333 15.8655 3.03758 16.2727C3.10351 16.6906 3.31857 17.0704 3.64295 17.3419C3.95907 17.6066 4.3435 17.6837 4.67535 17.7171C5.00293 17.75 5.41702 17.75 5.89449 17.75L5.93224 17.75H18.0678L18.1055 17.75C18.583 17.75 18.9971 17.75 19.3247 17.7171C19.6565 17.6837 20.0409 17.6066 20.3571 17.3419C20.6814 17.0704 20.8965 16.6906 20.9624 16.2727C21.0267 15.8655 20.8951 15.4962 20.7529 15.1945C20.6127 14.8966 20.3996 14.5416 20.154 14.1322L20.1539 14.1322L20.1345 14.0998L19.5565 13.1364L19.5281 13.0889C19.1332 12.4255 18.8477 11.7046 18.6809 10.954C18.4583 10.9843 18.231 11 18 11C17.7088 11 17.4235 10.9751 17.1459 10.9273C17.3313 11.9598 17.7011 12.9521 18.2391 13.8561L18.2702 13.9081L18.8483 14.8715C19.119 15.3227 19.2918 15.6124 19.3959 15.8336C19.4599 15.9694 19.4748 16.0337 19.4782 16.0527C19.4675 16.1024 19.4419 16.1477 19.4048 16.1824C19.3867 16.1893 19.3239 16.2096 19.1745 16.2246C18.9313 16.2491 18.5939 16.25 18.0678 16.25H5.93224C5.4061 16.25 5.06873 16.2491 4.8255 16.2246C4.67609 16.2096 4.6133 16.1893 4.59525 16.1824C4.55816 16.1477 4.53254 16.1024 4.52182 16.0527C4.52524 16.0337 4.54011 15.9694 4.6041 15.8336C4.70826 15.6124 4.88105 15.3227 5.15175 14.8715L5.72978 13.9081L5.76095 13.8561C6.39362 12.793 6.79367 11.6078 6.9347 10.3788L6.94146 10.3185L7.19326 8.05224C7.4654 5.60297 9.53566 3.75 12 3.75C12.4969 3.75 12.9778 3.82534 13.4312 3.96573C13.6434 3.48979 13.9278 3.05312 14.2705 2.66963ZM16.774 4.41972C16.3344 4.76129 16.041 5.28229 16.004 5.8728C16.3401 6.368 16.5873 6.93032 16.7217 7.53822C17.0683 7.82658 17.5139 8 18 8C18.1046 8 18.2073 7.99197 18.3076 7.9765L18.2976 7.8866C18.15 6.55813 17.5986 5.36357 16.774 4.41972Z" fill="white"/>
<path d="M9.10222 17.6647C9.27315 18.6215 9.64978 19.467 10.1737 20.0701C10.6976 20.6731 11.3396 21 12 21C12.6604 21 13.3024 20.6731 13.8263 20.0701C14.3502 19.467 14.7269 18.6215 14.8978 17.6647" stroke="white" stroke-width="1.5" stroke-linecap="round"/>
<circle cx="18" cy="6" r="2.5" fill="white" stroke="white"/>
</svg>
