<svg width="26" height="24" viewBox="0 0 26 24" fill="none" xmlns="http://www.w3.org/2000/svg">
<path fill-rule="evenodd" clip-rule="evenodd" d="M6.13668 3.69658L2.18441 12.0547C2.16861 12.085 2.16316 12.1197 2.16892 12.1534C2.17468 12.1871 2.19133 12.218 2.21628 12.2412L12.8852 22.5411C12.9159 22.569 12.9557 22.5844 12.997 22.5844C13.0384 22.5844 13.0782 22.569 13.1089 22.5411L23.7842 12.2412C23.8089 12.2178 23.8253 12.1869 23.8311 12.1533C23.8368 12.1197 23.8316 12.085 23.8161 12.0547L19.8638 3.69658C19.8533 3.66751 19.8339 3.64252 19.8085 3.62517C19.7831 3.60782 19.7528 3.59899 19.7221 3.59996H6.2769C6.2466 3.60079 6.21717 3.61033 6.19208 3.62745C6.16698 3.64457 6.14727 3.66856 6.13527 3.69658H6.13668Z" fill="#50AF95"/>
<path fill-rule="evenodd" clip-rule="evenodd" d="M14.3734 12.9098C14.2969 12.9162 13.901 12.9419 13.0197 12.9419C12.3176 12.9419 11.8194 12.9226 11.6405 12.9098C8.92721 12.7878 6.90327 12.3118 6.90327 11.746C6.90327 11.1801 8.92721 10.6981 11.6405 10.5761V12.4341C11.8176 12.447 12.3239 12.4791 13.0261 12.4791C13.8688 12.4791 14.2902 12.4406 14.367 12.4341V10.5761C17.074 10.6981 19.0979 11.1741 19.0979 11.7396C19.0979 12.3051 17.0796 12.7878 14.3734 12.9098ZM14.3734 10.3896V8.72414H18.1532V6.18472H7.86106V8.72414H11.6405V10.3896C8.56958 10.5323 6.25848 11.1416 6.25848 11.8811C6.25848 12.6206 8.56958 13.225 11.6405 13.3726V18.7028H14.3734V13.3726C17.438 13.23 19.743 12.6203 19.743 11.8875C19.743 11.1548 17.438 10.5308 14.3734 10.39V10.3896Z" fill="white"/>
</svg>
